<?xml version="1.0" standalone="no"?>
<!DOCTYPE svg PUBLIC "-//W3C//DTD SVG 20010904//EN"
 "http://www.w3.org/TR/2001/REC-SVG-20010904/DTD/svg10.dtd">
<svg version="1.0" xmlns="http://www.w3.org/2000/svg"
 width="1080.000000pt" height="1080.000000pt" viewBox="0 0 1080.000000 1080.000000"
 preserveAspectRatio="xMidYMid meet">

<g transform="translate(0.000000,1080.000000) scale(0.100000,-0.100000)"
fill="#000000" stroke="none">
<path d="M6781 10791 c-16 -10 -11 -13 59 -36 30 -10 96 -43 145 -74 198 -122
297 -201 488 -393 104 -103 191 -188 193 -188 9 0 -50 74 -74 93 -12 10 -28
31 -36 45 -12 24 -11 29 5 46 10 10 16 23 13 27 -3 5 -1 9 4 9 11 0 49 87 78
179 24 75 27 80 175 237 22 22 39 46 39 52 0 14 -1067 17 -1089 3z"/>
<path d="M8710 10678 c0 -161 -17 -497 -31 -623 -13 -120 -30 -221 -105 -600
-8 -44 -33 -135 -55 -203 -22 -67 -42 -143 -46 -167 -3 -25 -9 -45 -12 -45
-24 0 -42 170 -27 248 9 42 3 50 -23 33 -19 -12 -22 -96 -5 -168 7 -32 40
-116 73 -184 32 -69 70 -157 84 -195 14 -38 62 -163 107 -279 97 -248 130
-342 130 -366 0 -19 -28 -39 -55 -39 -9 0 -40 23 -69 50 -29 28 -57 50 -62 50
-6 0 -15 -15 -22 -32 -28 -75 -23 -74 -189 -32 -125 31 -165 37 -258 37 -120
1 -241 -19 -355 -57 -50 -17 -72 -21 -78 -12 -4 6 -30 70 -56 141 -26 72 -52
134 -57 140 -5 5 7 -36 27 -90 30 -84 73 -214 74 -222 0 -1 -27 -20 -59 -42
-72 -50 -116 -100 -159 -182 -35 -69 -41 -122 -18 -155 22 -30 124 -73 218
-91 98 -18 309 -11 350 13 10 5 10 4 2 -5 -6 -7 -18 -13 -27 -15 -8 -1 -21 -7
-28 -12 -31 -24 -222 -75 -334 -89 -66 -9 -146 -20 -178 -26 -31 -5 -62 -7
-68 -4 -12 8 -129 185 -153 233 -9 17 -19 32 -22 32 -14 0 14 -53 76 -145 71
-106 94 -144 88 -150 -7 -7 -193 -42 -200 -38 -5 2 -9 37 -10 76 -2 66 -2 68
-5 17 -2 -32 -11 -65 -22 -78 -17 -23 -21 -23 -295 -32 -153 -5 -281 -12 -284
-15 -3 -3 46 -5 109 -6 106 -1 231 -6 272 -11 9 -1 16 -6 15 -10 -2 -5 -70
-11 -153 -14 -82 -2 -151 -7 -154 -9 -11 -12 282 -4 359 10 132 23 120 34 120
-107 0 -151 -12 -237 -40 -290 -57 -109 -138 -166 -252 -175 -58 -5 -67 -9
-108 -48 -37 -36 -131 -85 -162 -85 -5 0 -8 42 -8 93 -1 122 -25 405 -35 415
-4 4 -5 -8 -2 -26 4 -18 10 -133 13 -256 l7 -223 -79 -58 c-126 -94 -243 -218
-287 -306 -44 -86 -49 -138 -7 -70 14 22 28 41 33 41 4 0 7 -24 7 -52 0 -29 5
-82 10 -118 13 -81 95 -352 117 -388 33 -53 66 -82 95 -82 33 0 34 6 8 40 -11
14 -20 30 -20 35 0 6 -9 28 -20 50 -12 23 -20 59 -20 86 0 42 4 49 36 74 31
24 39 26 61 16 14 -6 27 -20 30 -31 3 -12 14 -20 27 -20 17 0 18 2 6 10 -12 8
-12 10 -1 10 9 0 11 7 8 21 -4 15 1 23 18 31 33 15 58 -3 130 -91 81 -97 89
-100 174 -67 40 16 72 35 75 44 4 16 26 131 26 139 0 2 5 1 10 -2 6 -3 10 1
10 9 0 9 5 16 11 16 6 0 9 -8 7 -18 -3 -11 0 -19 7 -19 7 0 11 7 8 15 -7 17
13 31 47 33 20 1 18 3 -10 9 -32 7 -29 7 21 9 43 1 63 -4 82 -19 14 -11 29
-20 34 -20 4 0 21 -14 37 -30 40 -43 38 -79 -10 -248 -6 -21 -6 -22 27 -8 45
19 68 60 95 171 42 174 41 270 -4 523 -10 56 -15 102 -12 102 11 0 34 -30 24
-31 -5 0 9 -6 31 -12 62 -18 205 -97 241 -134 45 -45 79 -154 71 -229 -3 -30
-4 -54 -2 -54 7 0 84 128 100 166 27 64 44 173 38 243 l-6 63 -66 50 c-116 86
-266 153 -445 197 -87 22 -160 42 -163 45 -3 2 0 73 6 156 6 83 11 211 11 285
0 73 4 136 9 139 5 3 57 15 116 26 126 25 113 30 203 -90 66 -87 157 -189 222
-245 24 -22 6 3 -42 55 -85 93 -248 297 -248 311 0 3 19 11 43 18 243 64 378
97 381 92 2 -3 7 -28 11 -56 15 -119 38 -255 42 -251 3 2 -5 71 -16 153 -12
82 -21 154 -21 161 0 15 39 31 236 97 188 63 329 126 399 179 77 59 87 62 149
41 73 -25 83 -19 92 54 7 63 13 71 33 47 7 -8 27 -22 46 -31 20 -9 37 -25 40
-38 10 -48 58 -329 75 -447 29 -198 44 -464 36 -660 -3 -96 -9 -188 -12 -205
-5 -22 -4 -27 5 -19 19 17 33 234 30 445 -2 108 -1 195 3 193 10 -6 17 -67 23
-204 4 -69 13 -195 22 -280 18 -190 34 -995 23 -1136 -51 -596 -195 -1174
-406 -1625 -35 -75 -64 -143 -65 -150 -3 -35 -18 65 -24 156 -8 113 -1 140 89
344 25 57 46 108 46 113 0 6 6 24 14 41 8 18 16 41 19 52 3 11 15 53 27 94 34
118 18 127 -18 11 -34 -107 -76 -216 -117 -305 -91 -194 -147 -315 -242 -513
-62 -132 -131 -228 -242 -339 -61 -62 -164 -143 -181 -143 -5 0 -10 -4 -10 -8
0 -7 -31 -26 -111 -67 -10 -5 -19 -15 -19 -22 0 -6 -6 -14 -12 -16 -7 -3 -4
-6 8 -6 36 -2 231 130 322 218 79 77 162 174 162 189 0 6 3 12 8 14 27 12 68
86 200 368 11 22 12 20 7 -20 -2 -25 -7 -162 -11 -305 -5 -251 7 -552 36 -845
28 -281 41 -445 43 -535 2 -81 5 -100 17 -100 12 0 15 16 15 85 0 167 -19 440
-34 505 -27 111 -49 359 -57 633 -5 161 -3 232 4 232 6 0 13 8 15 18 2 9 3 1
1 -18 -1 -19 0 -26 3 -16 4 15 7 16 14 5 6 -10 9 -10 9 -1 0 6 7 12 15 12 11
0 15 -13 15 -54 0 -30 4 -57 9 -60 5 -4 12 -45 16 -94 4 -48 11 -89 14 -92 4
-3 15 -59 24 -125 9 -66 26 -176 37 -245 11 -69 29 -199 40 -290 27 -222 39
-296 57 -355 8 -27 18 -92 23 -143 7 -85 20 -122 40 -122 11 0 3 59 -31 230
-15 80 -42 233 -59 340 -16 107 -39 247 -50 310 -62 358 -105 686 -105 810 0
85 0 85 69 225 37 77 81 174 96 216 49 131 154 491 180 614 114 539 167 1130
140 1550 -6 99 -13 187 -15 195 -2 8 -14 130 -25 270 -27 332 -55 510 -146
932 l-75 348 -125 317 c-69 175 -128 332 -131 348 -4 24 3 40 31 77 32 42 84
136 113 208 10 24 12 22 42 -40 39 -82 39 -69 0 40 -56 157 -65 271 -28 366
l11 29 17 -50 c9 -27 20 -56 24 -62 5 -7 6 -17 3 -22 -3 -4 1 -46 8 -91 7 -46
11 -93 8 -103 -3 -14 -1 -18 6 -13 7 4 12 26 12 49 0 70 15 76 38 16 11 -30
36 -96 56 -146 20 -51 36 -97 36 -103 0 -5 21 -10 48 -10 41 1 45 2 30 14 -10
7 -18 19 -18 27 0 12 -2 12 -9 0 -7 -10 -11 -5 -16 17 -3 18 -11 30 -17 29 -6
-1 -17 23 -25 53 -8 30 -23 75 -35 100 -11 25 -22 59 -23 75 -2 17 -11 48 -20
70 -9 21 -17 54 -17 72 0 18 -3 31 -7 29 -4 -3 -8 32 -9 77 -2 84 22 607 37
822 5 66 12 216 15 333 l7 212 -106 0 -105 0 0 -122z m-440 -2564 c50 -8 105
-21 123 -29 17 -7 57 -16 87 -20 30 -4 59 -14 65 -22 7 -9 13 -41 14 -72 1
-31 7 -69 13 -85 10 -26 9 -31 -13 -48 -13 -11 -36 -30 -51 -43 -16 -13 -28
-21 -28 -18 0 4 -9 -2 -19 -11 -11 -10 -25 -15 -32 -10 -7 4 -10 3 -6 -3 10
-16 -226 -112 -255 -105 -5 1 -8 -2 -8 -7 0 -5 -9 -7 -20 -4 -11 3 -20 1 -20
-3 0 -5 -21 -10 -47 -10 -27 -1 -109 -4 -183 -9 -155 -8 -236 4 -335 51 -79
38 -95 65 -72 126 28 73 190 238 233 238 5 0 24 -24 42 -53 30 -46 131 -167
119 -142 -2 6 -13 28 -23 50 -22 50 -72 124 -97 147 -18 16 -18 17 10 31 28
14 154 52 203 60 60 10 217 6 300 -9z m418 -82 c5 -53 -10 -113 -33 -132 -23
-19 -61 28 -76 94 l-13 58 40 33 c38 33 39 33 58 15 11 -11 21 -38 24 -68z
m-1218 -602 c-8 -5 -19 -10 -25 -10 -5 0 -3 5 5 10 8 5 20 10 25 10 6 0 3 -5
-5 -10z m1527 -217 c-3 -10 -5 -2 -5 17 0 19 2 27 5 18 2 -10 2 -26 0 -35z
m-2245 -750 c16 -14 19 -25 14 -56 -8 -48 -33 -87 -56 -87 -49 0 -95 95 -71
147 10 23 16 25 52 20 22 -3 50 -14 61 -24z m598 -418 c0 -66 -14 -76 -62 -48
-61 35 -35 102 40 103 20 0 22 -5 22 -55z m1237 -2337 c-3 -8 -6 -5 -6 6 -1
11 2 17 5 13 3 -3 4 -12 1 -19z m0 -95 c-3 -10 -5 -4 -5 12 0 17 2 24 5 18 2
-7 2 -21 0 -30z"/>
<path d="M7635 7794 c-18 -44 -18 -44 -1 -44 8 0 28 12 46 26 24 21 28 29 19
40 -21 25 -48 16 -64 -22z"/>
<path d="M2811 10265 c-29 -30 -57 -52 -61 -50 -4 3 -10 -5 -13 -16 -3 -12
-10 -19 -15 -15 -5 3 -26 -9 -47 -27 -23 -18 -36 -25 -33 -16 6 14 1 15 -33 8
-22 -5 -51 -17 -65 -26 -20 -12 -70 -17 -247 -24 -122 -5 -244 -13 -272 -19
-70 -14 -295 -41 -385 -47 -53 -3 -88 0 -120 11 -24 8 -46 14 -48 12 -1 -2 28
-25 65 -52 37 -27 91 -71 118 -97 41 -40 45 -48 25 -42 -14 4 -39 16 -56 26
-27 16 -51 19 -170 18 -77 0 -168 -6 -204 -13 -64 -13 -62 -13 95 -12 188 1
207 -4 392 -115 61 -37 128 -76 150 -87 21 -11 47 -29 57 -41 11 -12 29 -21
41 -21 35 0 48 -24 43 -80 -4 -44 -3 -48 12 -40 12 7 32 -2 76 -31 32 -22 60
-42 62 -44 5 -5 -44 -123 -104 -252 -55 -117 -65 -143 -58 -143 3 0 45 83 94
185 103 214 188 366 308 550 135 207 211 298 461 551 2 2 0 4 -5 4 -5 0 -33
-25 -63 -55z m-141 -139 c0 -2 -8 -10 -17 -17 -16 -13 -17 -12 -4 4 13 16 21
21 21 13z"/>
<path d="M7677 10079 c7 -7 15 -10 18 -7 3 3 -2 9 -12 12 -14 6 -15 5 -6 -5z"/>
<path d="M727 10064 c-8 -8 2 -108 23 -229 18 -104 71 -263 125 -380 13 -27
65 -174 116 -325 106 -317 192 -538 217 -560 32 -29 62 -79 137 -231 72 -147
90 -209 65 -224 -16 -10 -12 -42 7 -49 9 -4 19 -2 23 4 23 37 96 -162 86 -232
-17 -116 -17 -175 -2 -235 9 -34 23 -101 32 -150 8 -48 24 -121 34 -162 28
-105 49 -294 60 -524 5 -108 12 -202 16 -208 3 -6 10 -59 14 -118 8 -103 38
-266 99 -531 75 -327 92 -394 100 -404 5 -6 20 -39 34 -73 24 -59 123 -233
133 -233 2 0 -16 40 -40 88 -64 128 -106 262 -196 627 -101 409 -118 524 -140
920 -6 105 -13 205 -16 223 -7 48 -5 198 5 367 28 438 177 1144 325 1540 4 11
-5 -2 -21 -30 -15 -27 -34 -70 -42 -95 -35 -117 -52 -176 -89 -310 -22 -80
-48 -179 -57 -220 -10 -41 -22 -93 -28 -115 l-11 -40 -6 40 c-3 22 -1 43 5 47
6 5 5 8 -3 8 -7 0 -17 -11 -22 -25 -5 -14 -14 -25 -19 -25 -6 0 -8 -6 -5 -14
3 -8 2 -22 -3 -30 -7 -12 -15 -3 -38 42 -17 31 -32 59 -35 62 -3 3 -15 21 -26
40 -12 19 -47 78 -79 130 -54 87 -153 275 -275 520 -26 52 -64 149 -85 215
-112 363 -149 458 -255 650 -38 69 -78 138 -87 153 -39 61 -71 101 -76 96z
m1005 -1928 c-3 -5 -11 -1 -19 9 -19 27 -16 38 5 18 11 -10 17 -22 14 -27z
m-35 -18 c-3 -7 -5 -2 -5 12 0 14 2 19 5 13 2 -7 2 -19 0 -25z m-79 -273 c43
-57 45 -66 37 -169 -4 -56 -10 -180 -14 -276 l-6 -175 -18 55 c-32 101 -77
321 -77 373 0 29 5 68 10 88 6 20 12 63 15 95 2 32 5 61 5 64 1 4 17 -15 48
-55z"/>
<path d="M7995 9753 c11 -10 36 -38 55 -63 42 -54 60 -74 60 -65 0 22 -84 121
-115 136 -20 10 -20 10 0 -8z"/>
<path d="M8115 9600 c3 -5 8 -10 11 -10 2 0 4 5 4 10 0 6 -5 10 -11 10 -5 0
-7 -4 -4 -10z"/>
<path d="M8142 9560 c7 -10 14 -18 15 -16 6 6 -9 36 -18 36 -5 0 -4 -9 3 -20z"/>
<path d="M1201 9391 c-1 -8 3 -28 8 -45 6 -17 16 -53 25 -81 31 -103 52 -151
64 -147 15 5 15 27 0 55 -7 12 -12 27 -13 32 -2 27 -18 75 -25 75 -4 0 -10 18
-14 40 -3 22 -10 40 -15 40 -4 0 -13 10 -19 23 -6 12 -11 16 -11 8z"/>
<path d="M1997 9013 c-4 -3 -7 -11 -7 -17 0 -6 5 -5 12 2 6 6 9 14 7 17 -3 3
-9 2 -12 -2z"/>
<path d="M8871 8819 c-1 -8 5 -35 13 -60 8 -24 22 -72 32 -106 25 -89 29 -71
5 23 -24 93 -49 166 -50 143z"/>
<path d="M8894 8465 c7 -139 9 -158 37 -324 41 -244 78 -348 230 -651 54 -107
112 -231 128 -275 33 -87 40 -89 15 -4 -25 86 -56 161 -85 210 -47 75 -136
269 -162 350 -29 89 -68 264 -97 439 -11 69 -27 148 -35 177 -8 28 -15 77 -15
110 0 32 -5 65 -11 73 -8 11 -9 -19 -5 -105z m52 -245 c3 -14 -2 -7 -10 15 -9
22 -15 49 -15 60 1 19 15 -22 25 -75z"/>
<path d="M3672 8155 c0 -16 2 -22 5 -12 2 9 2 23 0 30 -3 6 -5 -1 -5 -18z"/>
<path d="M9876 7920 c4 -115 2 -174 -10 -230 -9 -47 -11 -79 -5 -84 5 -6 9
-31 9 -57 0 -26 4 -50 9 -53 9 -6 14 31 27 187 3 42 11 77 16 77 7 0 9 -115 7
-321 -4 -356 -9 -332 64 -344 24 -4 35 -10 31 -17 -4 -7 -3 -8 4 -4 7 4 22 0
34 -8 12 -9 18 -16 12 -16 -5 0 -8 -17 -6 -39 3 -30 -1 -45 -18 -63 -12 -13
-31 -36 -42 -53 -12 -18 -2 -11 26 18 25 27 46 56 46 65 0 10 3 12 9 7 5 -6
15 -68 21 -140 5 -71 15 -184 20 -250 29 -331 145 -1046 215 -1320 81 -315
194 -629 246 -680 11 -11 2 21 -11 40 -27 37 -121 330 -160 495 -10 41 -32
127 -49 190 -88 327 -181 907 -227 1412 -9 100 -24 219 -33 263 -16 71 -21 82
-49 98 -17 10 -53 22 -79 25 l-48 7 1 100 c0 55 4 168 9 250 8 165 -2 304 -35
452 -35 159 -39 158 -34 -7z"/>
<path d="M3651 8034 c0 -11 3 -14 6 -6 3 7 2 16 -1 19 -3 4 -6 -2 -5 -13z"/>
<path d="M3881 7994 c0 -11 3 -14 6 -6 3 7 2 16 -1 19 -3 4 -6 -2 -5 -13z"/>
<path d="M3891 7914 c0 -11 3 -14 6 -6 3 7 2 16 -1 19 -3 4 -6 -2 -5 -13z"/>
<path d="M3901 7824 c0 -11 3 -14 6 -6 3 7 2 16 -1 19 -3 4 -6 -2 -5 -13z"/>
<path d="M3557 7708 c-14 -45 -25 -84 -23 -86 2 -2 16 33 31 78 15 45 25 83
23 85 -2 3 -16 -32 -31 -77z"/>
<path d="M3912 7765 c0 -16 2 -22 5 -12 2 9 2 23 0 30 -3 6 -5 -1 -5 -18z"/>
<path d="M9742 7687 c-27 -54 -43 -97 -36 -97 7 0 67 130 62 135 -3 3 -14 -14
-26 -38z"/>
<path d="M3923 7670 c0 -25 2 -35 4 -22 2 12 2 32 0 45 -2 12 -4 2 -4 -23z"/>
<path d="M3516 7584 c-4 -14 -5 -28 -3 -31 3 -2 8 8 11 23 4 14 5 28 3 31 -3
2 -8 -8 -11 -23z"/>
<path d="M3496 7525 c-9 -26 -7 -32 5 -12 6 10 9 21 6 23 -2 3 -7 -2 -11 -11z"/>
<path d="M3372 7423 c-6 -32 -14 -83 -18 -113 -11 -87 -17 -96 -76 -116 -67
-22 -62 -23 -69 12 -7 29 -7 28 -8 -7 -1 -34 -2 -36 -83 -68 -88 -35 -320
-152 -314 -158 2 -2 54 21 116 52 62 30 120 55 129 55 9 0 25 7 35 15 11 8 30
15 42 15 13 0 26 5 29 10 8 12 25 13 25 2 0 -13 -50 -33 -63 -26 -7 4 -9 3 -4
-1 10 -11 -71 -48 -89 -41 -8 3 -12 2 -9 -4 8 -13 -30 -31 -52 -24 -13 4 -14
3 -5 -3 9 -7 -6 -19 -55 -42 -37 -17 -107 -56 -155 -85 -68 -43 -88 -51 -92
-39 -3 8 -6 61 -6 117 0 57 -3 186 -7 287 -7 168 -8 176 -13 94 -11 -172 -3
-515 14 -620 66 -408 107 -597 148 -674 30 -57 30 -55 -2 34 -41 119 -118 526
-122 649 -3 77 -2 79 29 105 67 56 472 249 494 235 5 -3 9 -20 9 -38 0 -18 7
-41 15 -52 13 -17 14 -16 5 16 -13 45 -13 87 0 95 15 9 134 54 260 97 185 63
377 110 480 118 97 8 262 33 328 50 26 7 0 8 -88 4 -69 -3 -163 -8 -210 -10
-47 -2 -112 -10 -145 -19 -33 -8 -114 -27 -180 -41 -99 -21 -234 -59 -290 -80
-13 -6 -13 27 4 160 12 104 9 123 -7 39z m-89 -268 c-3 -9 -8 -14 -10 -11 -3
3 -2 9 2 15 9 16 15 13 8 -4z"/>
<path d="M6066 7461 c-3 -4 23 -11 58 -13 35 -3 72 -11 82 -17 15 -9 6 -11
-46 -5 -53 5 -63 4 -52 -7 17 -18 91 -38 206 -54 55 -8 105 -20 112 -27 26
-29 -20 -460 -71 -662 -9 -32 -13 -61 -11 -63 6 -6 43 97 65 180 23 88 49 268
57 402 4 57 12 110 20 122 8 12 14 29 14 37 0 20 -65 40 -123 37 -53 -3 -112
14 -139 39 -34 32 -158 54 -172 31z"/>
<path d="M7921 7154 c0 -11 3 -14 6 -6 3 7 2 16 -1 19 -3 4 -6 -2 -5 -13z"/>
<path d="M7890 7005 c0 -11 7 -41 15 -68 10 -33 18 -145 25 -362 11 -301 10
-322 -10 -467 -20 -143 -61 -316 -109 -467 -32 -100 -7 -57 32 55 19 55 50
170 68 255 l33 154 1 450 c0 248 -1 431 -3 408 -4 -53 -18 -56 -27 -5 -7 46
-25 78 -25 47z"/>
<path d="M795 6850 c20 -333 90 -607 200 -777 56 -85 58 -73 4 24 -57 105
-128 326 -114 360 5 15 0 40 -45 228 -11 44 -24 123 -30 174 -6 52 -13 97 -16
100 -3 4 -3 -46 1 -109z"/>
<path d="M6191 6908 c-7 -29 -18 -66 -26 -83 l-14 -30 4 45 5 45 -10 -45 c-22
-97 -50 -253 -46 -257 12 -12 84 225 101 335 9 59 1 53 -14 -10z"/>
<path d="M4080 6851 c0 -6 4 -13 10 -16 6 -3 7 1 4 9 -7 18 -14 21 -14 7z"/>
<path d="M5771 6844 c-1 -17 74 -210 106 -271 34 -67 44 -60 13 10 -82 183
-107 240 -113 257 -3 8 -6 10 -6 4z"/>
<path d="M4105 6800 c3 -5 8 -10 11 -10 2 0 4 5 4 10 0 6 -5 10 -11 10 -5 0
-7 -4 -4 -10z"/>
<path d="M3302 6680 c0 -14 2 -19 5 -12 2 6 2 18 0 25 -3 6 -5 1 -5 -13z"/>
<path d="M3311 6634 c0 -11 3 -14 6 -6 3 7 2 16 -1 19 -3 4 -6 -2 -5 -13z"/>
<path d="M3360 6511 c0 -4 11 -25 25 -45 14 -20 25 -39 25 -42 0 -3 -21 -25
-47 -49 l-48 -44 35 12 c19 7 41 16 48 21 13 8 122 -40 122 -55 0 -4 -39 -28
-87 -54 -148 -79 -330 -210 -385 -277 -136 -168 -139 -227 -23 -413 43 -69
207 -254 170 -191 -20 33 -44 159 -45 230 0 47 29 115 54 125 5 2 28 24 50 49
61 68 134 142 139 142 2 0 6 -59 9 -130 4 -112 8 -135 25 -158 16 -21 29 -27
59 -27 52 0 54 -20 8 -80 -29 -39 -35 -53 -30 -78 10 -49 90 -169 163 -244 69
-70 190 -160 201 -149 3 4 -4 13 -16 22 -62 43 -202 266 -202 322 0 40 33 108
60 122 28 15 78 -10 108 -54 23 -34 72 -84 72 -73 0 3 -6 12 -13 19 -20 21
-50 95 -43 107 4 6 25 11 46 11 35 0 41 -4 69 -50 32 -51 108 -110 143 -110
26 0 89 34 110 59 35 41 46 67 53 119 4 31 13 56 21 59 8 3 36 -2 62 -11 29
-9 63 -13 84 -9 47 7 63 -16 85 -127 12 -59 19 -78 24 -64 15 38 9 -50 -7 -95
-18 -54 -10 -68 11 -18 30 71 39 144 39 297 -1 122 -5 175 -22 249 -35 151
-67 206 -167 289 l-40 33 50 -6 c99 -13 242 -74 265 -113 9 -15 9 -15 10 1 1
55 -99 178 -184 226 -137 77 -287 103 -606 105 -235 1 -235 1 -295 29 -79 36
-154 88 -161 110 -5 17 -24 24 -24 8z m648 -397 c42 -29 15 -89 -49 -109 -19
-6 -89 21 -89 35 0 5 -3 15 -6 24 -3 9 5 26 20 41 30 29 89 34 124 9z"/>
<path d="M5775 6509 c-17 -4 -73 -12 -125 -17 -59 -6 -77 -10 -48 -11 54 -1
190 16 221 29 21 8 21 9 2 8 -11 0 -34 -4 -50 -9z"/>
<path d="M3658 6483 c7 -3 16 -2 19 1 4 3 -2 6 -13 5 -11 0 -14 -3 -6 -6z"/>
<path d="M5458 6473 c17 -2 47 -2 65 0 17 2 3 4 -33 4 -36 0 -50 -2 -32 -4z"/>
<path d="M5398 6463 c7 -3 16 -2 19 1 4 3 -2 6 -13 5 -11 0 -14 -3 -6 -6z"/>
<path d="M1641 6427 c0 -9 -40 -133 -87 -274 -95 -285 -98 -302 -53 -398 13
-27 22 -56 20 -63 -1 -8 3 -19 9 -27 6 -7 9 -18 8 -25 -2 -7 3 -15 10 -17 31
-12 2 118 -42 183 -39 57 -35 82 37 269 50 130 109 331 104 352 -4 17 -5 17
-6 0z"/>
<path d="M9731 6429 c-4 -53 60 -282 75 -267 2 2 -4 43 -13 91 -10 52 -20 82
-25 74 -6 -10 -13 38 -9 66 0 4 -3 7 -8 7 -5 0 -12 10 -14 23 -2 12 -5 15 -6
6z"/>
<path d="M960 6373 c0 -13 89 -107 95 -101 3 2 -5 16 -17 29 -13 14 -31 37
-41 52 -16 25 -37 36 -37 20z"/>
<path d="M8971 6284 c0 -11 3 -14 6 -6 3 7 2 16 -1 19 -3 4 -6 -2 -5 -13z"/>
<path d="M8962 6230 c0 -14 2 -19 5 -12 2 6 2 18 0 25 -3 6 -5 1 -5 -13z"/>
<path d="M8151 6164 c0 -11 3 -14 6 -6 3 7 2 16 -1 19 -3 4 -6 -2 -5 -13z"/>
<path d="M8134 6124 c-15 -47 -130 -305 -161 -362 -27 -50 -139 -210 -163
-232 -3 -3 -18 -21 -35 -40 -23 -27 -19 -24 18 10 61 56 134 147 181 225 46
75 43 60 -36 -180 -32 -99 -74 -208 -93 -242 -19 -35 -33 -63 -31 -63 2 0 23
29 46 65 52 80 86 164 134 330 20 72 63 213 96 315 33 101 57 186 55 188 -3 3
-7 -4 -11 -14z"/>
<path d="M8921 6084 c0 -11 3 -14 6 -6 3 7 2 16 -1 19 -3 4 -6 -2 -5 -13z"/>
<path d="M8765 6024 c-32 -74 -35 -84 -25 -84 10 0 53 110 46 117 -3 3 -12
-12 -21 -33z"/>
<path d="M1049 5985 c17 -33 31 -51 31 -40 0 6 -10 21 -21 35 -13 17 -17 18
-10 5z"/>
<path d="M2860 5891 c0 -6 4 -13 10 -16 6 -3 7 1 4 9 -7 18 -14 21 -14 7z"/>
<path d="M999 5843 c-13 -16 -12 -17 4 -4 16 13 21 21 13 21 -2 0 -10 -8 -17
-17z"/>
<path d="M6557 5803 c-4 -3 -7 -11 -7 -17 0 -6 5 -5 12 2 6 6 9 14 7 17 -3 3
-9 2 -12 -2z"/>
<path d="M8691 5774 c0 -11 3 -14 6 -6 3 7 2 16 -1 19 -3 4 -6 -2 -5 -13z"/>
<path d="M8591 5593 c-50 -86 -89 -158 -87 -160 4 -4 66 93 66 103 0 3 13 24
28 47 31 47 95 167 88 167 -2 0 -45 -70 -95 -157z"/>
<path d="M6585 5720 c3 -5 8 -10 11 -10 2 0 4 5 4 10 0 6 -5 10 -11 10 -5 0
-7 -4 -4 -10z"/>
<path d="M6611 5684 c0 -11 3 -14 6 -6 3 7 2 16 -1 19 -3 4 -6 -2 -5 -13z"/>
<path d="M2911 5593 c61 -145 110 -247 167 -348 60 -104 67 -104 17 1 -19 40
-35 76 -35 79 0 4 -13 25 -28 48 -31 45 -72 129 -117 240 -16 37 -32 70 -36
73 -5 3 10 -39 32 -93z"/>
<path d="M2664 5633 c10 -31 113 -215 159 -283 53 -78 46 -42 -9 49 -26 42
-69 114 -96 161 -55 94 -64 106 -54 73z"/>
<path d="M7776 5555 c-9 -26 -7 -32 5 -12 6 10 9 21 6 23 -2 3 -7 -2 -11 -11z"/>
<path d="M10152 5536 c-1 -16 -11 -67 -21 -115 -10 -47 -29 -140 -41 -206 -13
-66 -40 -181 -61 -255 -33 -117 -55 -241 -74 -410 -4 -35 -3 -41 5 -28 6 10
22 84 35 164 26 154 69 331 91 375 37 74 77 318 71 434 -1 39 -4 57 -5 41z"/>
<path d="M1895 5370 c3 -14 10 -51 16 -82 11 -68 80 -298 103 -348 9 -19 14
-26 10 -15 -3 11 -19 72 -36 135 -16 63 -34 131 -40 150 -5 19 -11 49 -13 65
-2 17 -13 50 -25 75 -11 25 -18 34 -15 20z"/>
<path d="M2171 5233 c1 -8 25 -47 81 -131 35 -51 55 -65 32 -21 -9 19 -20 36
-23 39 -4 3 -24 31 -44 63 -36 54 -48 67 -46 50z"/>
<path d="M26 5147 c-4 -44 -2 -123 4 -180 32 -311 44 -407 53 -407 5 0 7 50 4
123 -4 91 -3 111 5 80 5 -24 14 -43 19 -43 6 0 7 -9 4 -20 -4 -12 -2 -20 5
-20 8 0 10 -10 7 -27 -6 -29 20 -123 36 -134 5 -4 7 -11 4 -16 -8 -13 19 -89
30 -83 4 3 9 -5 11 -17 2 -13 10 -23 19 -23 10 0 13 5 8 18 -48 118 -132 447
-176 692 -27 147 -24 143 -33 57z"/>
<path d="M7893 5146 c-58 -12 -80 -25 -31 -18 24 4 30 1 25 -9 -3 -8 -22 -54
-42 -104 -60 -147 -142 -313 -186 -378 -113 -166 -326 -392 -512 -542 -47 -38
-86 -74 -86 -79 -1 -15 97 63 223 177 37 34 72 61 77 60 5 -2 9 1 9 6 0 5 12
22 28 38 237 250 296 336 443 645 45 95 86 175 91 176 11 5 31 42 21 41 -4 -1
-31 -7 -60 -13z"/>
<path d="M10695 5078 c-10 -40 -29 -109 -42 -153 -14 -44 -31 -100 -38 -125
-7 -25 -18 -60 -24 -78 -5 -18 -6 -30 -1 -27 20 12 139 439 127 451 -3 3 -13
-28 -22 -68z"/>
<path d="M7788 5123 c6 -2 18 -2 25 0 6 3 1 5 -13 5 -14 0 -19 -2 -12 -5z"/>
<path d="M7657 5095 c-36 -32 -26 -32 21 0 20 14 30 25 22 25 -8 0 -28 -12
-43 -25z"/>
<path d="M3020 5021 c0 -6 4 -13 10 -16 6 -3 7 1 4 9 -7 18 -14 21 -14 7z"/>
<path d="M7926 4933 c-4 -38 -15 -113 -26 -168 -10 -55 -28 -154 -40 -220 -31
-175 -97 -430 -162 -628 -26 -82 -87 -215 -109 -241 -28 -32 -113 -156 -131
-191 -11 -22 -24 -42 -28 -45 -4 -3 -21 -41 -39 -85 l-31 -80 4 85 c2 47 0 76
-4 66 -7 -22 -26 126 -35 294 -4 58 -13 132 -22 165 -8 33 -19 76 -24 95 -17
68 1 -361 21 -505 11 -77 24 -183 30 -235 15 -145 35 -287 75 -527 19 -120 37
-229 40 -243 8 -52 -2 -53 -168 -5 -155 44 -304 101 -363 139 -18 11 -37 36
-44 56 -18 51 -89 192 -108 213 -11 12 -30 17 -72 17 -46 0 -59 4 -65 18 -13
33 -25 249 -27 484 -2 130 -6 229 -9 220 -4 -11 -8 -2 -11 23 -3 22 -1 42 4
43 4 2 6 8 2 13 -3 5 5 9 18 9 17 0 19 3 9 9 -9 6 -10 11 -2 15 6 4 16 4 21 1
6 -3 10 -1 10 4 0 6 7 11 15 11 8 0 19 9 25 20 6 11 16 20 23 20 7 0 6 -4 -3
-10 -9 -6 -10 -10 -3 -10 7 0 17 8 22 19 6 10 24 24 41 31 16 7 30 16 30 21 0
5 7 9 15 9 8 0 15 5 15 10 0 14 -1 14 -66 -25 -165 -100 -531 -268 -706 -323
-131 -43 -185 -50 -308 -40 -216 17 -710 109 -915 170 -55 16 -149 43 -210 60
-60 16 -125 36 -144 45 -26 12 -38 13 -55 4 -12 -7 -13 -9 -4 -7 10 3 32 -1
50 -8 27 -12 29 -15 12 -20 -10 -3 -1 -3 21 0 26 3 35 2 26 -4 -10 -7 -10 -11
-1 -17 7 -4 16 -2 21 6 7 11 11 10 22 -6 10 -13 27 -19 51 -19 20 0 36 -4 36
-8 0 -4 12 -8 26 -8 15 0 45 -5 67 -12 32 -10 36 -13 21 -19 -13 -5 -6 -8 22
-8 63 -1 103 -12 98 -25 -3 -9 8 -12 40 -11 25 1 43 -1 40 -6 -2 -4 4 -7 13
-7 33 1 72 -21 77 -44 15 -68 26 -205 26 -309 0 -124 -6 -161 -22 -137 -6 9
-8 6 -7 -12 3 -50 -1 -81 -10 -76 -4 3 -19 -3 -31 -14 -15 -13 -31 -18 -44
-14 -14 3 -17 2 -8 -4 10 -7 7 -13 -15 -27 -15 -10 -37 -30 -47 -43 -11 -14
-45 -44 -77 -67 -42 -31 -55 -46 -48 -56 5 -8 9 -19 9 -24 0 -14 -43 -14 -53
-1 -5 7 -7 5 -4 -4 2 -8 16 -16 30 -18 46 -6 30 -20 -20 -18 -27 0 -48 6 -51
14 -2 6 3 12 12 12 9 0 16 5 16 10 0 6 -9 10 -20 10 -16 0 -20 7 -20 30 0 25
4 30 25 30 14 0 25 5 25 11 0 7 17 10 44 8 l44 -4 -5 60 c-3 33 -2 57 2 53 7
-7 35 14 35 26 0 3 -9 6 -20 6 -13 0 -20 7 -20 20 0 17 -7 20 -40 20 -33 0
-40 -3 -40 -20 0 -18 -7 -20 -80 -20 -47 0 -80 -4 -80 -10 0 -5 -18 -10 -40
-10 l-40 0 0 -70 0 -70 80 0 80 0 0 -61 c0 -79 -10 -97 -49 -91 -17 2 -31 8
-31 13 0 5 -18 9 -40 9 -33 0 -40 -3 -40 -20 0 -12 7 -20 17 -20 14 0 15 -2 4
-12 -11 -10 -14 -10 -18 0 -5 13 -83 17 -83 3 0 -4 11 -6 24 -4 15 3 25 -1 29
-11 5 -14 -3 -16 -57 -16 -34 0 -83 -6 -108 -14 l-45 -13 -21 46 c-11 25 -38
63 -61 83 -23 20 -41 40 -41 44 0 10 -141 144 -152 144 -9 0 -121 104 -186
173 -19 20 -39 37 -44 37 -8 0 46 -110 60 -120 4 -3 14 -18 21 -33 18 -33 72
-92 121 -129 19 -14 46 -36 60 -47 31 -26 35 -29 85 -65 44 -32 105 -94 105
-106 0 -4 -28 -21 -62 -38 -63 -30 -138 -51 -338 -92 -58 -13 -134 -29 -170
-37 -36 -8 -139 -27 -229 -43 -161 -28 -203 -40 -144 -40 41 0 368 45 538 75
77 13 192 31 255 40 224 32 407 66 572 105 92 22 180 40 196 40 19 0 39 -11
63 -36 109 -115 290 -237 495 -336 l145 -69 -48 -53 c-58 -63 -306 -387 -384
-501 -131 -191 -219 -353 -219 -403 0 -56 202 -165 335 -181 60 -7 85 -7 98 2
18 12 64 106 166 342 71 162 155 417 221 670 18 69 19 70 99 56 39 -7 84 -10
101 -6 30 7 30 6 30 -38 0 -128 112 -742 181 -994 l31 -113 57 6 c210 20 222
23 294 62 48 25 78 49 91 71 19 33 19 33 -4 115 -28 97 -65 181 -183 420 -103
209 -206 400 -254 471 -37 55 -40 65 -19 65 29 0 285 103 376 152 113 60 299
182 354 232 22 20 40 36 41 36 1 0 51 -22 111 -49 60 -27 147 -60 194 -75 101
-30 679 -170 765 -185 199 -35 308 -51 342 -50 63 1 12 15 -155 43 -212 36
-339 63 -477 102 -177 50 -167 44 -148 100 13 39 15 70 8 193 -5 80 -9 198 -9
261 l-1 115 46 90 c25 50 75 136 112 192 37 55 67 105 67 109 0 4 13 35 30 70
34 72 139 404 170 539 23 99 62 346 56 353 -3 2 -10 -16 -16 -40 -7 -23 -27
-90 -46 -148 -52 -161 -91 -305 -101 -380 -3 -19 -9 -39 -13 -45 -5 -5 -11
-27 -15 -47 -7 -38 -20 -49 -28 -25 -2 6 -2 2 0 -10 2 -12 -6 -37 -17 -55 -11
-18 -20 -39 -20 -47 0 -8 -6 -22 -14 -30 -7 -9 -27 -42 -44 -74 -17 -32 -72
-118 -122 -192 -76 -112 -95 -135 -116 -135 -18 0 -29 9 -41 36 -17 35 -17 36
17 102 19 37 37 69 40 72 9 7 70 98 70 104 0 2 23 39 50 80 28 42 60 97 73
123 12 27 25 50 30 51 4 2 7 11 7 21 0 9 4 21 9 26 7 8 46 117 58 160 1 6 7
26 12 45 26 88 73 274 91 360 45 212 105 670 88 670 -3 0 -9 -30 -12 -67z
m-1384 -1319 c3 -32 10 -219 13 -414 l7 -355 -65 -50 c-36 -27 -130 -104 -208
-171 -199 -166 -284 -228 -362 -264 -80 -36 -106 -37 -175 -5 -112 52 -212
134 -412 335 -74 75 -143 141 -153 146 -32 18 -47 159 -47 440 0 138 2 253 5
256 3 2 92 -12 198 -34 303 -60 365 -69 462 -70 82 0 102 4 225 47 74 25 172
64 217 86 46 21 87 39 92 39 4 0 46 18 92 40 46 22 89 38 94 36 6 -1 13 -29
17 -62z m840 -501 c-8 -23 -22 -3 -22 30 l0 32 13 -25 c8 -14 12 -31 9 -37z
m-2635 -449 c-3 -3 -12 -4 -19 -1 -8 3 -5 6 6 6 11 1 17 -2 13 -5z m-122 -34
c16 -7 12 -9 -18 -9 -23 -1 -36 3 -32 9 7 12 23 12 50 0z m-65 -10 c0 -5 -7
-10 -16 -10 -8 0 -12 5 -9 10 3 6 10 10 16 10 5 0 9 -4 9 -10z m-65 -30 c3 -5
1 -10 -4 -10 -6 0 -11 5 -11 10 0 6 2 10 4 10 3 0 8 -4 11 -10z"/>
<path d="M3481 4948 c1 -13 4 -36 8 -53 9 -43 24 -15 15 30 -7 40 -25 58 -23
23z"/>
<path d="M3090 4920 c6 -11 13 -20 16 -20 2 0 0 9 -6 20 -6 11 -13 20 -16 20
-2 0 0 -9 6 -20z"/>
<path d="M3200 4933 c0 -17 40 -126 51 -137 17 -19 9 12 -21 81 -16 37 -29 63
-30 56z"/>
<path d="M3156 4837 c69 -84 124 -129 236 -194 96 -56 121 -84 99 -106 -13
-13 -14 -37 -2 -37 18 0 41 31 41 55 0 29 -19 43 -195 145 -69 39 -113 75
-168 133 l-59 62 48 -58z"/>
<path d="M2100 4686 c0 -8 4 -17 9 -20 5 -4 7 3 4 14 -6 23 -13 26 -13 6z"/>
<path d="M2990 4602 c23 -14 188 -55 202 -50 7 3 -27 14 -77 26 -49 12 -101
24 -115 27 -18 5 -21 4 -10 -3z"/>
<path d="M6027 4549 c-9 -5 -22 -7 -29 -3 -7 5 -8 3 -3 -6 6 -10 4 -12 -7 -7
-9 3 -94 -17 -188 -44 -95 -27 -181 -49 -192 -49 -10 0 -17 -4 -14 -9 4 -5 0
-12 -6 -15 -24 -11 26 2 197 50 94 26 173 51 176 57 4 5 12 7 18 3 10 -6 71
19 71 29 0 7 -2 6 -23 -6z"/>
<path d="M3228 4543 c6 -2 18 -2 25 0 6 3 1 5 -13 5 -14 0 -19 -2 -12 -5z"/>
<path d="M3300 4541 c-24 -9 -24 -9 -2 -10 18 -1 22 -7 22 -34 0 -97 80 -345
209 -645 33 -79 61 -148 61 -152 0 -17 82 -203 93 -211 15 -11 37 -61 37 -85
0 -17 -6 -24 -20 -24 -11 0 -20 4 -20 8 0 9 -69 36 -76 29 -10 -10 -8 -89 3
-95 6 -4 18 -24 27 -46 11 -26 20 -36 31 -32 9 3 19 -3 26 -15 15 -28 40 -53
78 -75 17 -10 31 -22 31 -26 0 -4 8 -8 18 -8 9 0 31 -11 47 -25 17 -14 45 -32
63 -40 18 -8 56 -30 85 -48 63 -42 227 -127 245 -127 21 0 13 27 -14 45 -21
14 -24 19 -13 27 10 7 8 7 -8 3 -19 -5 -25 -1 -33 20 -7 19 -15 25 -26 21 -12
-5 -14 -1 -9 15 5 15 4 19 -4 15 -17 -11 -71 16 -71 35 0 13 -50 59 -64 59 -9
0 -126 126 -148 160 -97 147 -137 223 -168 322 -5 16 -25 61 -44 102 -20 41
-36 78 -36 83 0 4 -9 19 -20 33 -11 14 -20 33 -20 43 0 9 -4 17 -10 17 -5 0
-10 7 -10 15 0 22 -46 106 -54 98 -3 -3 -6 3 -6 15 0 12 -4 22 -9 22 -5 0 -14
15 -21 33 -7 17 -24 56 -37 86 -25 57 -93 318 -93 359 0 23 1 23 68 18 50 -5
61 -4 44 4 -34 14 -123 21 -152 11z m330 -1185 c0 -11 -19 -15 -25 -6 -3 5 1
10 9 10 9 0 16 -2 16 -4z m140 -7 c0 -6 9 -24 21 -40 19 -27 12 -43 -8 -16
-18 24 -33 67 -23 67 6 0 10 -5 10 -11z"/>
<path d="M10243 4497 c31 -29 57 -58 57 -65 0 -7 7 -12 15 -12 27 0 16 18 -47
74 -80 71 -101 74 -25 3z"/>
<path d="M10182 4504 c10 -10 20 -15 24 -12 3 4 -5 12 -18 18 -22 12 -22 12
-6 -6z"/>
<path d="M2194 4485 c25 -68 37 -108 51 -169 33 -144 140 -399 218 -523 13
-21 50 -89 82 -151 32 -63 64 -116 71 -119 7 -2 16 -18 19 -34 6 -29 25 -41
25 -16 0 16 -122 261 -195 392 -80 143 -125 246 -190 440 -31 94 -64 177 -72
185 -14 13 -15 13 -9 -5z"/>
<path d="M10239 4460 c13 -11 28 -20 35 -20 6 1 0 10 -13 20 -13 11 -28 20
-35 20 -6 -1 0 -10 13 -20z"/>
<path d="M9731 4434 c0 -11 3 -14 6 -6 3 7 2 16 -1 19 -3 4 -6 -2 -5 -13z"/>
<path d="M5528 4423 c6 -2 18 -2 25 0 6 3 1 5 -13 5 -14 0 -19 -2 -12 -5z"/>
<path d="M5425 4409 c-22 -4 -61 -8 -87 -8 -27 -1 -48 -5 -48 -11 0 -17 112
-11 170 10 57 19 39 25 -35 9z"/>
<path d="M1184 4395 c-4 -8 -12 -15 -20 -15 -51 0 66 -532 166 -755 15 -33 30
-71 33 -85 4 -14 17 -41 29 -60 12 -19 21 -45 19 -57 -1 -11 2 -24 7 -27 14
-8 6 65 -12 117 -21 60 -76 187 -92 212 -54 83 -107 371 -116 628 -1 59 -5 68
-14 42z"/>
<path d="M3545 4370 c3 -5 8 -10 11 -10 2 0 4 5 4 10 0 6 -5 10 -11 10 -5 0
-7 -4 -4 -10z"/>
<path d="M3560 4340 c0 -5 10 -15 23 -21 22 -12 22 -12 3 10 -21 23 -26 26
-26 11z"/>
<path d="M3600 4294 c0 -6 9 -19 20 -29 11 -10 20 -22 20 -27 0 -14 71 -86
145 -146 39 -31 77 -65 86 -74 9 -10 23 -18 32 -18 8 0 17 -4 19 -8 3 -9 114
-72 125 -72 5 0 -12 12 -37 27 -136 81 -309 226 -383 323 -15 19 -27 30 -27
24z"/>
<path d="M9646 4203 c-6 -14 -5 -15 5 -6 7 7 10 15 7 18 -3 3 -9 -2 -12 -12z"/>
<path d="M2475 4078 c22 -70 127 -320 145 -343 4 -5 26 -47 50 -93 23 -45 45
-80 50 -77 4 3 6 -4 3 -15 -8 -29 73 -108 108 -106 18 1 26 -3 25 -14 -1 -9 7
-14 17 -13 15 1 17 -4 13 -22 -7 -27 12 -44 25 -24 7 11 10 9 15 -8 4 -13 24
-31 50 -44 24 -11 44 -25 44 -30 0 -5 7 -9 16 -9 10 0 -8 26 -49 68 -79 80
-229 267 -298 368 -67 100 -101 160 -164 292 -30 61 -56 112 -59 112 -2 0 2
-19 9 -42z m275 -538 c0 -5 -4 -10 -10 -10 -5 0 -10 5 -10 10 0 6 5 10 10 10
6 0 10 -4 10 -10z"/>
<path d="M9560 3997 c0 -67 -1 -70 -37 -100 -21 -18 -71 -64 -113 -103 -41
-39 -99 -93 -127 -119 -29 -26 -53 -52 -53 -58 0 -5 15 6 33 24 42 45 308 259
321 259 3 0 6 -14 6 -32 0 -17 2 -29 5 -26 11 10 -8 188 -21 206 -12 15 -13 8
-14 -51z"/>
<path d="M6994 3975 c-10 -8 -14 -15 -8 -15 6 0 17 7 24 15 16 19 9 19 -16 0z"/>
<path d="M6897 3913 c-70 -48 -88 -73 -20 -29 40 26 101 75 93 75 -3 0 -35
-21 -73 -46z"/>
<path d="M4087 3899 c7 -7 15 -10 18 -7 3 3 -2 9 -12 12 -14 6 -15 5 -6 -5z"/>
<path d="M4150 3865 c0 -7 61 -37 66 -33 2 3 -12 12 -31 21 -19 9 -35 15 -35
12z"/>
<path d="M1085 3838 c4 -13 11 -27 16 -33 5 -5 4 5 -2 23 -12 36 -24 44 -14
10z"/>
<path d="M4240 3820 c0 -9 139 -65 145 -59 2 2 -30 18 -71 36 -41 17 -74 28
-74 23z"/>
<path d="M9602 3800 c0 -14 2 -19 5 -12 2 6 2 18 0 25 -3 6 -5 1 -5 -13z"/>
<path d="M1111 3787 c-1 -9 54 -156 77 -205 21 -46 28 -132 20 -231 -4 -47
-10 -195 -12 -330 -3 -135 -10 -313 -16 -396 -12 -184 -12 -229 1 -165 16 83
31 292 40 580 11 320 17 400 30 400 6 0 15 -14 21 -32 19 -54 116 -245 128
-253 7 -4 6 4 -3 21 -8 16 -42 92 -75 169 -65 152 -210 455 -211 442z"/>
<path d="M475 3732 c4 -24 17 -69 29 -100 13 -32 31 -84 41 -117 10 -33 24
-79 31 -103 8 -23 14 -50 14 -58 0 -8 4 -13 9 -10 14 9 -31 214 -60 268 -5 10
-9 28 -9 41 0 13 -4 27 -9 33 -5 5 -19 27 -31 49 l-22 40 7 -43z"/>
<path d="M7771 3744 c0 -11 3 -14 6 -6 3 7 2 16 -1 19 -3 4 -6 -2 -5 -13z"/>
<path d="M4428 3713 c7 -3 16 -2 19 1 4 3 -2 6 -13 5 -11 0 -14 -3 -6 -6z"/>
<path d="M4695 3630 c18 -5 23 -8 11 -9 -11 0 -17 -4 -13 -7 3 -3 15 -3 28 1
17 6 19 9 8 16 -8 5 -25 8 -39 8 -23 -1 -23 -2 5 -9z"/>
<path d="M2160 3365 c0 -11 -4 -78 -10 -150 -5 -71 -11 -220 -14 -330 -3 -110
-8 -247 -10 -305 -4 -88 -4 -96 4 -48 5 32 14 67 20 78 6 10 9 48 7 82 -2 35
-2 55 0 46 3 -10 13 -18 24 -18 23 0 23 8 7 136 -7 63 -8 98 -1 102 12 8 14
242 1 242 -4 0 -8 35 -8 78 0 42 -5 84 -10 92 -8 12 -10 12 -10 -5z"/>
<path d="M1437 3335 c19 -95 141 -336 190 -376 20 -17 17 -11 -34 67 -18 28
-57 105 -86 170 -83 184 -78 174 -70 139z"/>
<path d="M3065 3240 c3 -5 10 -10 16 -10 5 0 9 5 9 10 0 6 -7 10 -16 10 -8 0
-12 -4 -9 -10z"/>
<path d="M3715 3110 c3 -5 8 -10 11 -10 2 0 4 5 4 10 0 6 -5 10 -11 10 -5 0
-7 -4 -4 -10z"/>
<path d="M4960 3025 c0 -8 5 -15 10 -15 6 0 10 7 10 15 0 8 -4 15 -10 15 -5 0
-10 -7 -10 -15z"/>
<path d="M4223 3004 c-3 -8 -1 -20 6 -27 8 -8 11 -4 11 16 0 30 -7 35 -17 11z"/>
<path d="M1640 2993 c0 -5 18 -28 40 -51 45 -49 50 -66 18 -57 -40 11 65 -79
133 -114 34 -17 64 -29 67 -27 2 3 -11 18 -29 33 -42 35 -99 92 -166 166 -50
55 -63 65 -63 50z m120 -138 c13 -14 20 -25 16 -25 -12 0 -56 32 -56 41 0 16
16 10 40 -16z"/>
<path d="M4885 2950 c-3 -6 1 -7 9 -4 18 7 21 14 7 14 -6 0 -13 -4 -16 -10z"/>
<path d="M2200 2840 c0 -29 4 -40 15 -40 11 0 15 11 15 40 0 29 -4 40 -15 40
-11 0 -15 -11 -15 -40z"/>
<path d="M3348 2873 c6 -2 12 -10 12 -17 0 -16 31 -42 100 -85 30 -19 81 -52
113 -73 33 -21 77 -43 99 -49 22 -6 48 -14 57 -19 23 -12 123 -30 226 -40 50
-5 112 -12 139 -16 53 -8 60 9 9 19 -79 15 -339 89 -418 120 -108 42 -231 101
-260 125 -28 24 -62 42 -77 41 -10 0 -10 -2 0 -6z"/>
<path d="M4295 2860 c10 -11 20 -20 22 -20 1 0 3 9 3 20 0 14 -7 20 -22 20
-20 0 -21 -1 -3 -20z"/>
<path d="M4835 2870 c3 -5 8 -10 11 -10 2 0 4 5 4 10 0 6 -5 10 -11 10 -5 0
-7 -4 -4 -10z"/>
<path d="M1910 2736 c0 -3 9 -10 20 -16 11 -6 20 -8 20 -6 0 3 -9 10 -20 16
-11 6 -20 8 -20 6z"/>
<path d="M2270 2685 c0 -22 -6 -38 -15 -41 -10 -4 -15 -20 -15 -45 0 -33 -3
-39 -22 -39 l-21 0 20 -22 c12 -13 23 -43 26 -68 3 -25 9 -70 12 -100 4 -31 2
-66 -4 -80 l-10 -25 0 28 c-1 15 -5 27 -11 27 -6 0 -10 -40 -10 -99 0 -54 -3
-126 -6 -160 -6 -51 -4 -61 9 -61 12 0 16 -18 22 -80 9 -107 -2 -240 -21 -240
-9 0 -14 -12 -15 -37 0 -33 -36 -153 -38 -129 -1 4 -9 -2 -19 -14 -11 -13 -24
-20 -30 -16 -19 12 -14 36 8 36 17 0 20 7 20 40 0 29 -4 40 -15 40 -11 0 -15
11 -15 40 0 29 -4 40 -15 40 -11 0 -15 -11 -15 -41 0 -29 -4 -40 -12 -36 -9 3
-14 -6 -15 -27 -1 -17 -9 -92 -18 -166 -25 -215 -33 -314 -28 -342 3 -14 0
-29 -6 -32 -6 -4 -11 -20 -11 -36 0 -83 -103 -312 -246 -550 -82 -135 -234
-423 -234 -442 0 -4 11 -8 25 -8 20 0 28 8 42 43 27 66 103 209 197 367 101
169 199 358 233 448 26 69 61 142 68 142 2 0 69 -29 147 -64 177 -78 257 -106
456 -156 485 -122 983 -210 1662 -294 495 -62 753 -86 910 -86 l105 0 -80 -33
c-118 -48 -169 -81 -261 -169 -76 -73 -164 -176 -164 -191 0 -4 21 -7 48 -7
46 0 49 2 145 98 53 54 111 106 127 116 l30 17 -51 -101 c-28 -56 -49 -103
-46 -106 6 -6 29 33 88 143 37 71 50 86 92 109 26 14 50 24 52 22 1 -1 -8 -45
-21 -97 -12 -52 -26 -118 -30 -148 l-6 -53 166 0 c91 0 166 2 166 5 0 3 12 59
26 126 26 127 50 199 65 199 24 0 62 -135 76 -271 l6 -59 103 0 103 0 -65 138
c-36 75 -79 161 -95 191 l-31 54 39 -7 c44 -9 140 -50 164 -72 11 -10 20 -38
23 -77 4 -34 11 -99 17 -144 11 -81 12 -83 39 -83 l27 0 -22 127 c-13 71 -21
130 -19 132 7 8 151 -109 224 -183 72 -73 77 -76 122 -76 27 0 48 4 48 9 0 8
-19 35 -65 90 -86 105 -178 185 -278 241 -32 18 -56 34 -54 36 2 2 28 -1 58
-6 38 -8 148 -7 368 0 176 7 317 8 322 3 5 -5 19 -91 31 -191 22 -176 23 -182
45 -182 13 0 23 3 23 8 -1 43 -32 350 -40 391 -5 30 -8 56 -5 59 11 11 97 21
185 22 217 1 508 -110 808 -307 46 -30 86 -53 89 -50 3 3 -4 12 -16 19 -12 7
-21 16 -21 20 0 4 23 -6 50 -23 54 -33 57 -39 36 -72 -8 -12 -17 -32 -21 -44
-5 -19 -2 -23 14 -23 11 0 22 8 26 19 10 33 79 93 140 122 80 37 198 60 315
60 109 1 174 -17 261 -70 48 -29 67 -48 114 -116 19 -28 30 -11 15 24 -11 28
-68 85 -120 121 -22 15 -22 16 59 129 45 63 105 140 134 171 107 116 259 222
466 325 124 62 188 85 236 85 46 0 63 -27 109 -175 65 -205 77 -269 87 -455
11 -228 13 -240 44 -240 14 0 25 6 25 13 -3 115 -24 338 -40 418 -42 205 -121
402 -181 453 -29 25 -37 27 -83 20 -28 -3 -61 -10 -74 -15 -55 -21 -57 -18
-75 113 -23 172 -76 374 -130 500 -69 161 -119 250 -132 236 -3 -2 16 -47 43
-99 96 -189 178 -500 196 -747 1 -13 -311 -123 -459 -162 -44 -11 -186 -36
-315 -55 -129 -19 -309 -46 -400 -59 -454 -69 -768 -99 -1055 -101 -126 -1
-287 -8 -356 -15 -148 -14 -514 -10 -1159 13 -589 22 -883 36 -982 47 -46 5
-171 16 -278 25 -226 18 -227 18 -469 56 -228 36 -488 87 -714 140 -95 22
-239 56 -322 75 -190 43 -297 75 -460 134 -129 47 -305 128 -305 141 0 4 27
89 61 190 67 204 198 519 260 625 36 62 38 66 13 44 l-27 -25 8 30 c4 17 8 41
8 55 0 14 -1 80 -2 148 l-1 122 -26 0 c-22 0 -25 -4 -21 -20 12 -48 -26 -383
-57 -500 -18 -69 -125 -320 -127 -300 -1 8 -2 22 -3 30 -1 8 2 25 6 36 3 12 9
188 12 390 4 203 9 403 13 444 7 91 4 154 -8 158 -5 2 -9 21 -9 43 0 28 4 39
15 39 11 0 15 11 15 40 0 22 -4 40 -10 40 -5 0 -10 -16 -10 -35z m-23 -467
c-3 -8 -6 -5 -6 6 -1 11 2 17 5 13 3 -3 4 -12 1 -19z m0 -185 c-3 -10 -5 -2
-5 17 0 19 2 27 5 18 2 -10 2 -26 0 -35z m-80 -645 c-3 -8 -6 -5 -6 6 -1 11 2
17 5 13 3 -3 4 -12 1 -19z m-100 -50 c-3 -8 -6 -5 -6 6 -1 11 2 17 5 13 3 -3
4 -12 1 -19z m10 -65 c-3 -10 -5 -4 -5 12 0 17 2 24 5 18 2 -7 2 -21 0 -30z
m-26 0 c-12 -20 -14 -14 -5 12 4 9 9 14 11 11 3 -2 0 -13 -6 -23z m29 -73 c5
0 7 -7 4 -15 -11 -28 -24 -15 -23 23 1 23 3 28 6 15 2 -13 8 -23 13 -23z m35
-30 c3 -5 1 -10 -4 -10 -6 0 -11 5 -11 10 0 6 2 10 4 10 3 0 8 -4 11 -10z
m6981 -553 c-115 -74 -232 -188 -309 -303 -83 -123 -74 -116 -137 -99 -30 8
-95 18 -145 21 -76 5 -105 2 -188 -20 -53 -14 -135 -41 -180 -60 -46 -20 -86
-36 -90 -36 -5 0 -41 23 -82 50 -86 58 -294 162 -410 204 l-80 30 47 7 c25 4
113 12 195 18 346 27 509 46 768 92 93 17 258 43 365 59 107 16 206 33 220 39
34 13 49 12 26 -2z m-3466 -236 c0 -6 -4 -12 -9 -15 -4 -3 -34 -45 -66 -93
-66 -99 -180 -239 -201 -247 -8 -3 -14 0 -14 7 0 27 71 281 82 294 15 18 65
44 103 54 44 10 105 10 105 0z m2255 -189 c-3 -3 -11 0 -18 7 -9 10 -8 11 6 5
10 -3 15 -9 12 -12z"/>
<path d="M3538 2543 c-10 -2 -18 -9 -18 -15 0 -6 10 -8 23 -4 12 3 25 6 30 6
4 0 7 5 7 10 0 10 -12 11 -42 3z"/>
<path d="M2111 2334 c0 -11 3 -14 6 -6 3 7 2 16 -1 19 -3 4 -6 -2 -5 -13z"/>
<path d="M8448 2203 c6 -2 18 -2 25 0 6 3 1 5 -13 5 -14 0 -19 -2 -12 -5z"/>
<path d="M2141 2094 c0 -11 3 -14 6 -6 3 7 2 16 -1 19 -3 4 -6 -2 -5 -13z"/>
<path d="M9822 2055 c0 -16 2 -22 5 -12 2 9 2 23 0 30 -3 6 -5 -1 -5 -18z"/>
<path d="M9832 2000 c0 -14 2 -19 5 -12 2 6 2 18 0 25 -3 6 -5 1 -5 -13z"/>
<path d="M2136 1885 c8 -50 14 -58 14 -19 0 16 -5 36 -11 44 -7 11 -8 4 -3
-25z"/>
<path d="M9851 1904 c0 -11 3 -14 6 -6 3 7 2 16 -1 19 -3 4 -6 -2 -5 -13z"/>
<path d="M2106 1846 c2 -16 4 -41 4 -57 0 -16 5 -29 10 -29 6 0 10 18 10 40 0
22 -4 40 -9 40 -5 0 -12 8 -14 18 -2 9 -3 4 -1 -12z"/>
<path d="M9861 1864 c0 -11 3 -14 6 -6 3 7 2 16 -1 19 -3 4 -6 -2 -5 -13z"/>
<path d="M1107 1497 c-46 -383 -63 -572 -51 -542 16 39 93 760 82 770 -2 3
-16 -100 -31 -228z"/>
<path d="M1042 910 c0 -14 2 -19 5 -12 2 6 2 18 0 25 -3 6 -5 1 -5 -13z"/>
</g>
</svg>
